<?xml version="1.0" encoding="utf-8"?>
<!-- Generator: Adobe Illustrator 16.0.0, SVG Export Plug-In . SVG Version: 6.00 Build 0)  -->
<!DOCTYPE svg PUBLIC "-//W3C//DTD SVG 1.1//EN" "http://www.w3.org/Graphics/SVG/1.1/DTD/svg11.dtd">
<svg version="1.1" id="Layer_1" xmlns="http://www.w3.org/2000/svg" xmlns:xlink="http://www.w3.org/1999/xlink" x="0px" y="0px"
	 width="416px" height="448.051px" viewBox="0 0 416 448.051" enable-background="new 0 0 416 448.051" xml:space="preserve">
<g>
	<g>
		<path d="M108,120.874c0-17.638,2.626-30.796,7.562-39.469c4.331-7.024,7.847-11.885,10.394-14.577
			c2.539-2.691,7.89-8.074,15.961-16.146L91.482,0C78.027,13.455,68.506,23.211,62.9,29.264
			c-5.606,6.055-11.082,13.648-16.465,22.762C37.465,66.98,33,89.027,33,118.182v105.215h75V120.874z"/>
		<path d="M416,118.182c0-14.353-0.442-26.719-2.156-37.115c-1.719-10.388-5.137-20.071-10.662-29.041
			c-4.934-8.521-10.401-16.177-16.603-22.986C380.374,22.24,371.049,12.559,358.492,0l-50.658,50.682
			c7.025,6.728,12.235,11.925,15.601,15.585c3.363,3.668,6.668,8.714,10.408,15.137c4.932,8.224,7.157,21.383,7.157,39.469v102.523
			h75V118.182z"/>
	</g>
	<g>
		<path d="M308,327.177c0,17.638-2.935,30.796-7.87,39.47c-4.33,7.023-7.999,11.885-10.548,14.576
			c-2.539,2.691-7.965,8.074-16.037,16.146l50.396,50.682c13.455-13.455,22.957-23.211,28.562-29.265
			c5.607-6.056,11.379-13.647,16.762-22.763c8.971-14.953,13.734-37,13.734-66.155V223.397h-75V327.177z"/>
		<path d="M0,329.869c0,14.353,0.135,26.72,1.85,37.115c1.718,10.388,4.98,20.071,10.508,29.04
			c4.932,8.521,10.325,16.178,16.524,22.986c6.205,6.801,15.493,16.481,28.05,29.041l50.638-50.682
			c-7.024-6.729-12.245-11.926-15.608-15.586c-3.364-3.668-6.366-8.715-10.108-15.137C76.921,358.422,75,345.264,75,327.177v-103.78
			H0V329.869z"/>
	</g>
</g>
</svg>
