<?xml version="1.0" encoding="utf-8"?>
<!-- Generator: Adobe Illustrator 16.0.0, SVG Export Plug-In . SVG Version: 6.00 Build 0)  -->
<!DOCTYPE svg PUBLIC "-//W3C//DTD SVG 1.1//EN" "http://www.w3.org/Graphics/SVG/1.1/DTD/svg11.dtd">
<svg version="1.1" id="Layer_1" xmlns="http://www.w3.org/2000/svg" xmlns:xlink="http://www.w3.org/1999/xlink" x="0px" y="0px"
	 width="100px" height="403.47px" viewBox="0 0 100 403.47" enable-background="new 0 0 100 403.47" xml:space="preserve">
<path fill="#606060" d="M71.97,333.644c0-11.193-8.984-20.214-20.177-20.214c-11.021,0-19.966,8.28-20.238,19.802h0.039v56.274
	l-0.026-0.022c0,2.356-1.338,3.032-2.612,3.778c-1.17,0.685-1.348,0.771-1.348,0.771l5.283,9.438l4.688-2.32h0
	c0,0,0.339-0.064,0.442-0.115c11.467-5.756,33.941-20.648,33.878-49.23C71.87,339.038,71.97,334.012,71.97,333.644z M46.335,343.885
	c0.119,0.19,0.118,0.374,0.242,0.53c0.122,0.154,0.253,0.309,0.408,0.463l0.977,0.982l-3.649,3.65l-0.486-0.458
	c-0.736-0.736-1.319-1.278-1.634-1.627c-0.34-0.374-0.773-0.814-1.067-1.307c-0.549-0.915-1.043-2.19-1.043-3.899v-9.558
	c0-1.708,0.496-2.983,1.046-3.901c0.31-0.525,0.864-0.977,1.196-1.335c0.306-0.331,0.828-0.862,1.562-1.597l0.462-0.459l3.642,3.65
	l-0.44,0.456c-0.429,0.429-0.679,0.714-0.814,0.857c-0.061,0.064-0.139,0.236-0.413,0.683c-0.133,0.232-0.177,0.751-0.177,1.79
	v9.269C46.147,343.114,46.191,343.633,46.335,343.885z M64.34,342.22c0,1.709-0.447,2.984-0.997,3.899
	c-0.292,0.492-0.702,0.933-1.043,1.307c-0.313,0.349-0.886,0.891-1.621,1.627l-0.479,0.458l-3.646-3.65l0.978-0.982
	c0.155-0.154,0.288-0.309,0.409-0.463c0.124-0.156,0.077-0.34,0.195-0.53c0.144-0.252,0.141-0.771,0.141-1.81v-9.269
	c0-1.039,0.003-1.558-0.13-1.79c-0.274-0.446-0.328-0.618-0.39-0.683c-0.135-0.144-0.373-0.429-0.802-0.857l-0.435-0.456l3.646-3.65
	l0.464,0.459c0.733,0.734,1.256,1.266,1.562,1.597c0.332,0.358,0.839,0.81,1.149,1.335c0.55,0.918,0.999,2.193,0.999,3.901V342.22z"
	/>
<g>
	<g>
		<path fill="#606060" d="M49.789,25.03h-2.712c-1.61,0-2.982-0.072-4.112-0.217c-1.133-0.144-2.25-0.467-3.35-0.967
			c-1.102-0.501-2.162-1.261-3.178-2.277c-2.174-2.17-3.259-5.152-3.259-8.945V0.308h33.221v12.316c0,3.793-1.086,6.775-3.259,8.945
			c-1.018,1.017-2.077,1.776-3.178,2.277c-1.103,0.5-2.219,0.823-3.35,0.967c-1.133,0.145-2.503,0.217-4.112,0.217H49.789z
			 M49.789,16.873c2.735,0,4.538-0.058,5.411-0.171c0.873-0.115,1.562-0.348,2.062-0.697c1.245-0.838,1.868-2.148,1.868-3.93v-3.61
			H40.446v3.61c0,1.781,0.623,3.092,1.868,3.93c0.395,0.258,0.786,0.438,1.173,0.537c0.388,0.098,1.052,0.179,1.995,0.24
			C46.423,16.842,47.858,16.873,49.789,16.873z"/>
		<path fill="#606060" d="M33.178,57.772v-8.521l4.945-1.55v-10.23l-4.945-1.618v-8.545l33.221,12.077v6.312L33.178,57.772z
			 M44.935,45.56l8.864-2.803l-8.864-2.984V45.56z"/>
		<path fill="#606060" d="M59.13,79.945v-8.18H33.178v-8.157H59.13v-8.18h7.269v24.517H59.13z"/>
		<path fill="#606060" d="M33.178,109v-8.521l4.945-1.55v-10.23l-4.945-1.617v-8.545l33.221,12.076v6.312L33.178,109z
			 M44.935,96.787l8.864-2.802L44.935,91V96.787z"/>
		<path fill="#606060" d="M47.693,136.912c-2.735,0-4.945-0.246-6.631-0.739c-1.687-0.494-3.16-1.371-4.421-2.629
			c-0.911-0.896-1.648-1.855-2.21-2.881c-0.562-1.025-0.956-2.091-1.184-3.198c-0.229-1.108-0.342-2.299-0.342-3.574
			c0-3.688,1.245-6.763,3.736-9.22c1.459-1.457,3.113-2.383,4.968-2.777c1.852-0.395,4.207-0.592,7.063-0.592h1.117h1.116
			c2.855,0,5.214,0.197,7.075,0.592c1.86,0.395,3.521,1.32,4.979,2.777c1.261,1.26,2.194,2.617,2.803,4.074
			c0.607,1.457,0.911,3.172,0.911,5.146c0,3.945-1.057,6.985-3.167,9.117c-2.112,2.133-4.725,3.419-7.838,3.858v-8.225
			c1.306-0.335,2.255-0.866,2.849-1.596c0.592-0.729,0.888-1.785,0.888-3.167c0-1.397-0.487-2.47-1.458-3.213
			c-0.351-0.273-0.779-0.497-1.288-0.672s-1.29-0.308-2.347-0.398s-2.562-0.138-4.522-0.138c-1.96,0-3.471,0.047-4.535,0.138
			s-1.854,0.224-2.37,0.398s-0.949,0.398-1.298,0.672c-0.942,0.729-1.413,1.801-1.413,3.213c0,1.595,0.439,2.81,1.321,3.646
			c0.835,0.835,2.013,1.254,3.531,1.254h0.479v-4.899h6.813v13.033H47.693z"/>
		<path fill="#606060" d="M33.178,150.241v-8.408h8.408v8.408H33.178z"/>
		<path fill="#606060" d="M33.178,181.275v-8.157h13.17v-8.682h-13.17v-8.156h33.221v8.156H53.617v8.682h12.781v8.157H33.178z"/>
		<path fill="#606060" d="M33.93,199.071l-5.15-5.128c1.368-1.367,2.375-2.343,3.02-2.928c0.646-0.585,1.402-1.136,2.268-1.651
			c1.518-0.912,3.759-1.367,6.721-1.367h18c2.962,0,5.202,0.455,6.722,1.367c0.926,0.547,1.697,1.104,2.313,1.675
			c0.615,0.569,1.605,1.537,2.974,2.904l-5.15,5.128c-0.82-0.821-1.367-1.36-1.641-1.619c-0.273-0.258-0.767-0.607-1.48-1.047
			c-0.881-0.502-2.219-0.752-4.01-0.752H41.062c-1.793,0-3.13,0.25-4.01,0.752c-0.441,0.273-0.825,0.538-1.151,0.797
			c-0.327,0.258-0.653,0.55-0.979,0.877C34.593,198.406,34.263,198.736,33.93,199.071z"/>
		<path fill="#606060" d="M40.788,225.068c-1.458,0-2.715-0.088-3.771-0.262c-1.056-0.175-2.04-0.544-2.95-1.105
			c-0.806-0.456-1.568-1.01-2.291-1.663c-0.72-0.654-1.72-1.618-2.997-2.894l5.15-5.149c0.333,0.35,0.661,0.684,0.979,1.002
			c0.319,0.319,0.618,0.593,0.9,0.82c0.281,0.229,0.695,0.51,1.242,0.844c0.834,0.5,2.172,0.752,4.01,0.752h17.454
			c1.838,0,3.174-0.252,4.011-0.752c0.652-0.381,1.164-0.74,1.537-1.082c0.372-0.343,0.9-0.87,1.584-1.584l5.15,5.149
			c-1.277,1.275-2.261,2.229-2.951,2.859c-0.692,0.63-1.471,1.196-2.336,1.697c-0.912,0.562-1.896,0.931-2.95,1.105
			c-1.057,0.174-2.313,0.262-3.771,0.262H40.788z"/>
		<path fill="#606060" d="M43.34,254.074c-2.173,0-4.049-0.574-5.628-1.72c-1.581-1.147-2.777-2.697-3.589-4.648
			c-0.813-1.953-1.219-4.105-1.219-6.46c0-2.749,0.327-5.142,0.979-7.178c0.653-2.036,1.785-3.843,3.396-5.423l5.241,5.241
			c-0.82,0.82-1.417,1.898-1.789,3.235c-0.373,1.336-0.558,2.726-0.558,4.17c0,3.174,0.994,4.762,2.984,4.762
			c0.85,0,1.504-0.221,1.96-0.66c0.455-0.441,0.752-1.171,0.889-2.188l0.569-4.01c0.41-2.947,1.391-5.172,2.939-6.677
			c1.563-1.519,3.79-2.277,6.677-2.277c2.02,0,3.824,0.49,5.41,1.47c1.587,0.979,2.829,2.384,3.727,4.215
			c0.895,1.83,1.344,3.976,1.344,6.437c0,2.445-0.316,4.583-0.945,6.414c-0.631,1.83-1.638,3.429-3.02,4.797l-5.127-5.127
			c0.851-0.852,1.39-1.77,1.617-2.757c0.229-0.987,0.344-2.173,0.344-3.555c0-1.307-0.312-2.302-0.935-2.985
			c-0.624-0.683-1.337-1.025-2.142-1.025c-0.594,0-1.109,0.22-1.551,0.661c-0.517,0.516-0.843,1.276-0.979,2.278l-0.547,4.01
			c-0.426,2.918-1.344,5.097-2.757,6.54c-0.835,0.865-1.851,1.493-3.042,1.88C46.396,253.881,44.98,254.074,43.34,254.074z"/>
		<path fill="#606060" d="M59.129,281.985v-8.18H33.177v-8.156h25.952v-8.181h7.27v24.517H59.129z"/>
	</g>
</g>
</svg>
